<?xml version="1.0" standalone="no"?>
<!DOCTYPE svg PUBLIC "-//W3C//DTD SVG 20010904//EN"
 "http://www.w3.org/TR/2001/REC-SVG-20010904/DTD/svg10.dtd">
<svg version="1.0" encoding="utf-8" xmlns="http://www.w3.org/2000/svg"
 width="141.000000pt" height="125.000000pt" viewBox="0 0 141.000000 125.000000"
 preserveAspectRatio="xMidYMid meet">

<g transform="translate(0.000000,125.000000) scale(0.100000,-0.100000)"
fill="white" stroke="none">
<path d="M550 1103 c-134 -71 -172 -228 -95 -389 14 -28 25 -54 25 -57 0 -3
-23 -13 -50 -22 -93 -31 -191 -122 -219 -204 -6 -19 -11 -80 -11 -137 l0 -103
52 -16 c146 -43 355 -60 588 -47 30 2 78 0 106 -4 76 -10 141 15 197 75 137
146 52 374 -150 401 -32 4 -84 19 -115 32 l-57 24 19 29 c31 47 53 146 48 218
-8 126 -94 214 -220 224 -55 4 -70 1 -118 -24z m153 -24 c52 -14 112 -71 133
-125 19 -50 15 -118 -11 -195 -35 -102 -126 -164 -205 -140 -89 26 -149 119
-158 243 -8 107 38 179 137 214 45 16 56 17 104 3z m-139 -484 c65 -33 127
-33 184 0 37 21 46 23 77 12 19 -7 33 -16 33 -22 -1 -5 -19 -23 -41 -38 -100
-73 -115 -233 -32 -343 l24 -31 -82 -7 c-98 -8 -267 7 -391 34 -50 11 -91 20
-93 20 -8 0 -2 147 8 185 20 80 103 156 211 195 29 11 53 19 53 20 0 0 22 -11
49 -25z m481 -54 c68 -30 125 -113 125 -181 0 -77 -66 -162 -143 -185 -81 -24
-149 -5 -205 59 -87 100 -59 241 60 300 61 30 108 33 163 7z"/>
<path d="M948 438 l-3 -53 -53 -3 c-44 -3 -53 -6 -50 -20 2 -13 16 -18 55 -20
l52 -3 3 -52 c2 -38 7 -52 18 -52 11 0 16 14 18 52 l3 52 52 3 c40 2 53 7 55
21 3 14 -5 17 -52 17 l-56 0 0 55 c0 48 -3 55 -19 55 -17 0 -20 -8 -23 -52z"/>
</g>
</svg>
