<?xml version="1.0" standalone="no"?>
<!DOCTYPE svg PUBLIC "-//W3C//DTD SVG 20010904//EN"
 "http://www.w3.org/TR/2001/REC-SVG-20010904/DTD/svg10.dtd">
<svg version="1.0" xmlns="http://www.w3.org/2000/svg"
 width="424.000000pt" height="404.000000pt" viewBox="0 0 424.000000 404.000000"
 preserveAspectRatio="xMidYMid meet">

<g transform="translate(0.000000,404.000000) scale(0.100000,-0.100000)"
fill="white" stroke="none">
<path d="M1334 3755 c-187 -40 -349 -200 -399 -392 -40 -153 11 -426 106 -574
22 -34 39 -62 37 -63 -2 -2 -34 -13 -73 -26 -253 -83 -445 -249 -525 -455 -22
-55 -24 -78 -28 -292 l-4 -231 24 -16 c54 -35 403 -111 621 -135 48 -6 93 -14
100 -18 7 -4 100 -9 207 -10 107 -2 209 -4 225 -5 17 -1 39 0 49 2 15 4 23 -5
39 -43 11 -26 17 -50 15 -53 -3 -3 -53 -25 -112 -48 -136 -56 -226 -117 -326
-222 -147 -156 -173 -246 -168 -574 l3 -174 90 -27 c144 -43 260 -67 415 -84
80 -9 159 -21 176 -26 40 -12 588 -12 628 0 17 5 96 17 176 26 145 15 231 33
413 82 l97 26 0 181 c0 209 -11 327 -37 382 -34 74 -91 149 -175 229 -95 91
-173 140 -305 191 -51 20 -93 40 -93 45 0 5 11 32 25 59 l25 50 228 1 c297 1
440 11 592 42 139 27 365 85 393 99 15 8 17 29 17 232 0 194 -3 232 -20 287
-21 71 -68 154 -126 224 -79 97 -264 213 -416 261 -61 18 -67 27 -44 53 27 30
85 157 106 232 31 107 39 304 15 384 -26 90 -73 171 -137 235 -164 164 -387
203 -596 103 -78 -38 -199 -159 -240 -241 -43 -88 -56 -158 -49 -282 7 -135
35 -241 94 -360 27 -52 49 -98 51 -101 1 -3 -17 -11 -40 -18 -24 -7 -85 -33
-137 -57 -53 -25 -108 -44 -128 -44 -18 0 -59 13 -91 28 -31 16 -84 39 -117
51 -116 44 -109 40 -92 59 28 31 85 157 106 231 11 40 26 119 32 176 10 87 9
114 -5 181 -23 113 -67 195 -146 275 -131 131 -301 182 -476 144z m288 -128
c92 -45 167 -121 211 -214 31 -65 32 -73 31 -188 -2 -196 -57 -354 -166 -470
-80 -86 -150 -120 -248 -120 -65 0 -85 5 -142 33 -165 81 -271 275 -285 522
-9 160 24 253 124 353 88 89 188 128 315 124 76 -3 95 -7 160 -40z m1283 29
c78 -20 134 -54 195 -115 97 -97 138 -216 125 -361 -23 -245 -132 -438 -290
-516 -50 -24 -72 -29 -135 -29 -94 0 -170 34 -245 110 -127 129 -207 402 -170
578 51 243 289 395 520 333z m-1710 -1037 c165 -112 352 -110 507 4 28 21 30
21 92 5 35 -9 80 -25 99 -35 19 -10 63 -33 97 -51 85 -45 84 -45 389 62 57 20
112 36 122 36 10 0 45 -18 79 -39 137 -89 317 -85 457 10 l48 32 63 -16 c205
-54 382 -171 471 -311 66 -106 74 -138 79 -347 l4 -187 -33 -10 c-62 -20 -193
-51 -308 -72 -101 -20 -152 -22 -427 -24 -172 0 -315 2 -318 5 -4 3 1 35 11
70 25 97 23 265 -4 354 -44 142 -152 265 -291 332 -72 35 -84 38 -190 41 -129
5 -173 -6 -274 -65 -229 -133 -326 -401 -248 -682 11 -39 20 -76 20 -82 0 -8
-37 -9 -127 -5 -430 19 -588 38 -832 99 l-126 32 -3 179 c-4 249 17 313 142
445 94 98 200 162 358 216 89 30 105 30 143 4z m1021 -245 c103 -29 229 -137
279 -238 55 -113 55 -270 0 -445 -57 -179 -195 -314 -346 -336 -58 -8 -158 23
-220 69 -139 103 -224 300 -223 521 1 82 5 110 24 155 40 94 139 203 225 248
46 24 157 51 185 45 14 -3 48 -12 76 -19z m-318 -1053 c102 -51 156 -64 247
-59 71 4 94 10 170 46 97 47 130 51 194 22 24 -11 52 -20 62 -20 11 0 43 -12
72 -26 188 -95 314 -224 359 -368 16 -47 21 -101 25 -243 l6 -181 -59 -12
c-32 -6 -97 -21 -144 -32 -179 -42 -506 -78 -710 -78 -204 0 -531 36 -710 78
-47 11 -111 26 -142 32 l-58 11 0 132 c1 190 13 268 56 355 61 125 231 272
369 318 28 9 70 25 95 35 63 26 102 23 168 -10z"/>
</g>
</svg>
