<?xml version="1.0" standalone="no"?>
<!DOCTYPE svg PUBLIC "-//W3C//DTD SVG 20010904//EN"
 "http://www.w3.org/TR/2001/REC-SVG-20010904/DTD/svg10.dtd">
<svg version="1.0" encoding="utf-8" xmlns="http://www.w3.org/2000/svg"
 width="424.000000pt" height="368.000000pt" viewBox="0 0 424.000000 368.000000"
 preserveAspectRatio="xMidYMid meet">

<g transform="translate(0.000000,368.000000) scale(0.100000,-0.100000)"
fill="white" stroke="none">
<path d="M1288 3377 c-166 -58 -301 -201 -343 -364 -41 -158 3 -412 100 -576
19 -32 35 -62 35 -66 0 -5 -30 -18 -67 -31 -233 -78 -415 -224 -505 -405 -43
-85 -52 -145 -52 -363 -1 -182 1 -205 16 -216 21 -15 276 -79 403 -101 128
-22 314 -45 422 -52 l92 -6 -68 -73 c-78 -83 -134 -187 -150 -278 -6 -33 -11
-144 -11 -247 0 -169 2 -189 18 -197 31 -17 295 -81 417 -101 204 -34 361 -44
598 -38 122 3 258 10 303 17 68 10 90 9 141 -4 325 -85 633 154 633 489 0 157
-75 301 -215 413 l-40 31 65 2 c76 1 131 9 300 42 173 34 372 87 392 105 16
13 18 36 18 206 0 223 -12 294 -66 396 -87 166 -277 311 -504 385 -30 10 -57
19 -59 21 -1 1 13 29 33 61 68 111 110 249 122 404 17 226 -97 423 -303 522
l-88 42 -126 0 -126 0 -86 -43 c-159 -79 -258 -204 -293 -372 -31 -151 19
-398 112 -552 20 -32 35 -61 33 -62 -2 -2 -28 -11 -57 -20 -51 -17 -54 -17
-120 5 -86 29 -199 31 -297 5 -58 -15 -77 -16 -112 -7 -24 7 -43 16 -43 21 0
5 14 31 30 57 102 161 149 446 100 605 -43 140 -163 272 -299 330 -66 28 -89
32 -181 35 -90 3 -115 0 -172 -20z m294 -81 c151 -53 262 -187 287 -344 11
-70 0 -198 -25 -297 -38 -146 -146 -294 -257 -352 -46 -24 -63 -28 -142 -28
-80 0 -96 3 -145 29 -67 35 -155 124 -193 194 -66 121 -105 304 -93 431 6 71
47 169 96 231 109 137 307 194 472 136z m1402 -19 c90 -45 165 -122 209 -214
31 -66 32 -72 31 -198 0 -148 -15 -217 -71 -335 -43 -89 -141 -194 -217 -230
-73 -35 -174 -38 -251 -9 -87 32 -182 129 -235 240 -59 124 -74 193 -75 339 0
122 1 127 33 192 85 173 231 262 415 254 77 -3 98 -8 161 -39z m-735 -1007
c91 -34 179 -117 229 -218 36 -75 37 -78 36 -192 0 -88 -5 -134 -23 -195 -46
-162 -138 -293 -246 -345 -41 -21 -65 -25 -135 -25 -106 0 -160 24 -242 106
-110 113 -172 290 -166 477 3 97 6 114 35 173 55 112 150 189 288 235 55 19
148 12 224 -16z m-1038 -9 c61 -45 161 -75 244 -74 80 1 136 19 218 69 48 30
64 35 93 30 19 -4 34 -9 34 -11 0 -3 -22 -28 -49 -56 -102 -106 -147 -238
-137 -394 9 -146 61 -314 126 -405 11 -15 20 -32 20 -37 0 -4 -27 -16 -60 -27
-33 -10 -88 -32 -122 -48 -76 -36 -120 -42 -196 -28 -31 6 -127 15 -213 20
-170 11 -366 43 -524 87 l-100 28 0 200 0 200 36 75 c83 173 228 290 469 375
87 31 113 31 161 -4z m1354 -1 c151 -104 329 -100 487 11 14 11 35 19 47 19
36 0 211 -68 290 -112 96 -54 215 -171 258 -253 46 -88 55 -147 51 -340 l-3
-169 -58 -18 c-128 -39 -354 -78 -482 -83 -164 -8 -265 -22 -286 -41 -27 -25
-147 -4 -258 45 -52 23 -107 45 -122 48 -16 3 -29 9 -29 13 0 4 16 33 35 65
54 90 91 214 106 355 16 157 -27 299 -124 406 -26 29 -47 55 -47 58 0 9 41 25
68 25 13 1 43 -12 67 -29z m-566 -1040 c117 -37 219 -22 327 48 l60 39 59 -17
c64 -18 135 -46 135 -54 0 -2 -25 -18 -55 -35 -162 -92 -255 -251 -255 -435 0
-44 5 -101 11 -126 16 -70 66 -162 120 -223 l49 -56 -57 -8 c-106 -14 -517 -8
-653 11 -197 27 -460 85 -487 108 -16 13 -18 227 -3 333 30 212 226 396 510
480 l75 22 50 -34 c27 -18 79 -42 114 -53z m894 -60 c119 -37 220 -134 266
-256 57 -150 23 -309 -91 -430 -238 -252 -651 -121 -710 225 -51 300 241 552
535 461z"/>
<path d="M2747 1028 c-13 -11 -17 -34 -19 -118 l-3 -105 -110 -5 -110 -5 -3
-32 c-4 -39 4 -42 133 -46 l90 -2 5 -110 c5 -106 6 -110 28 -113 44 -7 52 12
52 124 l0 104 104 0 c114 0 134 9 122 55 -7 27 -2 26 -146 29 l-75 1 -3 105
c-2 84 -6 107 -19 118 -9 6 -20 12 -23 12 -3 0 -14 -6 -23 -12z"/>
</g>
</svg>
