<?xml version="1.0" standalone="no"?>
<!DOCTYPE svg PUBLIC "-//W3C//DTD SVG 20010904//EN"
 "http://www.w3.org/TR/2001/REC-SVG-20010904/DTD/svg10.dtd">
<svg version="1.0" xmlns="http://www.w3.org/2000/svg"
 width="512.000000pt" height="512.000000pt" viewBox="0 0 512.000000 512.000000"
 preserveAspectRatio="xMidYMid meet">

<g transform="translate(0.000000,512.000000) scale(0.100000,-0.100000)"
fill="white" stroke="none">
<path d="M1208 4796 l-1208 -321 0 -1915 0 -1915 1203 -319 c661 -175 1208
-321 1215 -323 9 -4 12 128 12 639 l0 643 498 -498 497 -497 318 318 317 317
-60 60 -61 61 148 28 148 28 442 442 443 441 -193 194 c-209 211 -273 259
-371 286 -91 25 -213 17 -290 -18 -31 -14 -208 -117 -393 -228 -315 -190 -402
-234 -420 -216 -4 4 35 50 87 102 l95 95 -603 603 -602 602 0 858 c0 471 -3
856 -7 856 -5 -1 -551 -146 -1215 -323z m922 -2237 c0 -1732 -3 -2170 -12
-2166 -7 2 -419 112 -915 243 l-903 239 0 1685 0 1685 908 241 c499 133 910
242 915 243 4 0 7 -976 7 -2170z m763 -681 l-318 -318 -72 72 -73 72 0 636 0
635 390 -390 390 -390 -317 -317z m1611 287 c17 -8 67 -51 111 -95 l80 -80
-305 -305 -305 -305 -350 -70 c-192 -38 -361 -72 -374 -75 -22 -6 -12 -19 125
-156 l149 -149 -108 -107 -107 -108 -317 318 -318 317 214 214 214 214 61 -29
c112 -53 225 -60 338 -23 27 9 213 114 414 235 395 236 403 239 478 204z"/>
<path d="M1530 2560 l0 -150 150 0 150 0 0 150 0 150 -150 0 -150 0 0 -150z"/>
<path d="M3930 3385 l0 -225 150 0 150 0 0 225 0 225 -150 0 -150 0 0 -225z"/>
<path d="M4555 3250 l-160 -160 108 -107 107 -108 155 155 c85 85 155 159 155
165 0 6 -46 56 -103 113 l-102 102 -160 -160z"/>
<path d="M3332 3297 l-102 -102 160 -160 160 -160 107 108 108 107 -155 155
c-85 85 -159 155 -165 155 -6 0 -56 -46 -113 -103z"/>
</g>
</svg>
