<?xml version="1.0" standalone="no"?>
<!DOCTYPE svg PUBLIC "-//W3C//DTD SVG 20010904//EN"
 "http://www.w3.org/TR/2001/REC-SVG-20010904/DTD/svg10.dtd">
<svg version="1.0" encoding="utf-8" xmlns="http://www.w3.org/2000/svg"
 width="278.000000pt" height="240.000000pt" viewBox="0 0 278.000000 240.000000"
 preserveAspectRatio="xMidYMid meet">

<g transform="translate(0.000000,240.000000) scale(0.100000,-0.100000)"
fill="white" stroke="none">
<path d="M813 2184 c-66 -32 -134 -99 -164 -161 -48 -97 -33 -282 32 -412 30
-60 31 -81 4 -81 -7 0 -54 -21 -105 -46 -110 -55 -193 -133 -236 -220 -28 -56
-29 -66 -32 -216 l-4 -158 29 -11 c59 -23 243 -60 373 -75 74 -8 150 -18 168
-20 l32 -5 -46 -57 c-80 -97 -88 -125 -92 -299 -3 -139 -2 -152 15 -161 28
-15 228 -59 328 -73 88 -12 248 -16 515 -12 74 1 165 1 201 1 115 -2 218 63
277 175 23 46 27 63 27 142 0 110 -23 164 -101 241 l-52 51 69 7 c79 7 280 48
366 74 l58 18 0 154 c0 147 -2 158 -27 213 -15 32 -40 73 -55 92 -59 71 -183
151 -285 184 l-38 12 35 70 c72 142 85 312 33 414 -33 63 -98 125 -165 159
-44 22 -66 26 -139 26 -78 0 -92 -3 -145 -31 -72 -39 -122 -93 -157 -168 -48
-102 -32 -263 39 -405 20 -38 27 -62 20 -69 -13 -13 -86 -13 -146 1 -37 8 -74
8 -142 -1 -118 -14 -124 -9 -84 70 42 82 63 172 63 268 1 101 -27 171 -97 240
-69 70 -131 95 -235 95 -70 -1 -94 -5 -137 -26z m253 -44 c51 -22 113 -82 139
-135 16 -33 20 -60 20 -150 -1 -102 -3 -115 -32 -177 -36 -77 -100 -151 -155
-179 -137 -70 -300 44 -353 248 -54 206 35 377 215 414 47 10 116 1 166 -21z
m889 -1 c87 -46 149 -129 160 -214 9 -68 -10 -192 -38 -257 -32 -70 -96 -141
-153 -168 -65 -32 -148 -25 -206 17 -101 72 -158 201 -158 357 0 82 3 96 30
142 56 99 134 143 250 144 57 0 85 -5 115 -21z m-459 -667 c49 -26 106 -84
133 -139 16 -32 21 -61 21 -122 0 -274 -202 -451 -379 -333 -56 38 -107 112
-131 190 -24 77 -27 206 -6 256 23 54 86 117 151 148 50 25 69 29 116 25 30
-3 73 -14 95 -25z m744 -62 c56 -36 131 -113 155 -160 25 -48 36 -143 29 -242
-6 -87 -7 -87 -38 -97 -68 -23 -188 -43 -328 -56 -81 -7 -163 -19 -182 -26
-31 -11 -43 -10 -113 13 -43 15 -94 33 -115 42 l-36 16 28 52 c65 120 83 299
42 392 -12 27 -38 68 -57 91 -19 24 -31 45 -28 49 14 14 61 4 117 -24 85 -43
158 -42 251 4 l69 34 79 -29 c44 -16 101 -42 127 -59z m-1414 53 c42 -24 60
-28 129 -28 69 0 86 4 127 28 42 24 98 36 98 21 0 -4 -14 -22 -31 -42 -18 -20
-43 -61 -57 -91 -45 -99 -32 -257 33 -386 18 -36 30 -67 27 -69 -4 -2 -45 -19
-91 -36 l-84 -33 -181 17 c-163 15 -276 34 -395 66 l-41 11 0 130 c0 123 1
132 29 187 51 100 123 163 248 218 95 41 126 42 189 7z m439 -643 c82 -43 164
-42 247 2 l59 31 54 -17 c30 -9 57 -20 59 -25 3 -4 -19 -25 -48 -45 -94 -65
-139 -150 -140 -266 -1 -92 13 -132 69 -209 l44 -59 -87 -8 c-171 -14 -518 22
-659 69 l-38 12 0 130 c0 116 3 135 23 173 50 94 143 170 265 217 80 31 84 31
152 -5z m671 -78 c86 -44 154 -153 154 -247 0 -97 -64 -198 -156 -245 -66 -33
-170 -35 -230 -3 -65 35 -101 70 -128 126 -57 117 -41 223 47 312 31 30 71 59
97 68 60 22 161 17 216 -11z"/>
<path d="M1643 504 c-11 -28 18 -34 172 -34 154 0 183 6 172 34 -6 14 -29 16
-172 16 -143 0 -166 -2 -172 -16z"/>
</g>
</svg>
