<?xml version="1.0" standalone="no"?>
<!DOCTYPE svg PUBLIC "-//W3C//DTD SVG 20010904//EN"
 "http://www.w3.org/TR/2001/REC-SVG-20010904/DTD/svg10.dtd">
<svg version="1.0" encoding="utf-8" xmlns="http://www.w3.org/2000/svg"
 width="1920.000000pt" height="1920.000000pt" viewBox="0 0 1920.000000 1920.000000"
 preserveAspectRatio="xMidYMid meet">

<g transform="translate(0.000000,1920.000000) scale(0.100000,-0.100000)"
fill="#000000" stroke="none">
<path d="M3938 12916 l-3298 -3301 0 -1333 0 -1332 3300 0 3300 0 0 -1655 0
-1655 1650 0 1650 0 -2 2988 -3 2987 -3293 5 -3292 5 471 470 c258 259 1740
1742 3291 3298 l2820 2827 -1648 -2 -1649 -1 -3297 -3301z"/>
<path d="M11960 14569 l0 -1651 1645 1649 1644 1648 1 -1650 0 -1650 -1645
-1645 -1645 -1645 0 -1652 0 -1653 1645 0 1645 0 0 1649 0 1649 1655 1647
1655 1648 0 1653 0 1654 -3300 0 -3300 0 0 -1651z"/>
<path d="M16903 7965 l-1648 -1644 1653 -1 1652 0 0 1645 c0 905 -2 1645 -4
1645 -2 0 -746 -740 -1653 -1645z"/>
</g>
</svg>
