<?xml version="1.0" standalone="no"?>
<!DOCTYPE svg PUBLIC "-//W3C//DTD SVG 20010904//EN"
 "http://www.w3.org/TR/2001/REC-SVG-20010904/DTD/svg10.dtd">
<svg version="1.0" xmlns="http://www.w3.org/2000/svg"
 width="587.000000pt" height="521.000000pt" viewBox="0 0 587.000000 521.000000"
 preserveAspectRatio="xMidYMid meet">

<g transform="translate(0.000000,521.000000) scale(0.100000,-0.100000)"
fill="white" stroke="none">
<path d="M2655 4685 c-79 -22 -247 -99 -327 -150 -285 -184 -455 -553 -435
-945 8 -143 18 -198 69 -380 45 -159 91 -276 137 -348 30 -47 65 -122 59 -127
-14 -12 -104 -51 -199 -86 -244 -89 -404 -193 -600 -388 -200 -200 -305 -369
-335 -541 -20 -118 -35 -448 -32 -700 l3 -225 125 -38 c317 -97 607 -154 1020
-198 273 -30 1045 -38 1320 -15 467 41 801 100 1147 204 l158 47 3 225 c3 252
-12 582 -32 700 -30 172 -135 341 -335 541 -196 195 -356 299 -600 388 -95 35
-185 74 -199 86 -6 5 29 80 59 127 46 72 92 189 137 348 51 182 61 237 69 380
20 392 -150 761 -435 945 -83 53 -250 129 -332 151 -72 19 -374 18 -445 -1z
m363 -171 c89 -25 221 -84 283 -125 115 -78 247 -227 310 -351 50 -99 63 -174
63 -358 0 -229 -38 -414 -128 -614 -79 -178 -243 -354 -399 -431 -204 -100
-330 -100 -534 0 -156 77 -320 253 -399 431 -90 200 -128 385 -128 614 0 235
26 326 140 480 146 200 319 308 599 374 32 8 132 -3 193 -20z m-543 -2028
c167 -84 251 -106 405 -106 155 0 237 22 408 108 121 60 141 67 191 66 36 -1
79 -11 121 -28 36 -15 83 -32 104 -37 61 -15 250 -111 351 -177 293 -194 476
-444 514 -702 31 -213 43 -668 19 -687 -16 -12 -507 -117 -673 -144 -443 -72
-902 -105 -1222 -89 -290 15 -572 45 -848 89 -166 27 -657 132 -673 144 -24
19 -12 474 19 687 45 308 298 604 685 801 54 27 126 58 161 69 34 10 76 26 92
35 51 26 134 45 176 40 22 -2 98 -33 170 -69z"/>
</g>
</svg>