<?xml version="1.0" standalone="no"?>
<!DOCTYPE svg PUBLIC "-//W3C//DTD SVG 20010904//EN"
 "http://www.w3.org/TR/2001/REC-SVG-20010904/DTD/svg10.dtd">
<svg version="1.0" encoding="utf-8" xmlns="http://www.w3.org/2000/svg"
 width="340.000000pt" height="300.000000pt" viewBox="0 0 340.000000 300.000000"
 preserveAspectRatio="xMidYMid meet">

<g transform="translate(0.000000,300.000000) scale(0.100000,-0.100000)"
fill="white" stroke="none">
<path
d="M1446 2694 c-200 -48 -378 -229 -427 -434 -38 -158 11 -424 112 -608
22 -41 37 -77 32 -81 -4 -4 -42 -20 -83 -36 -192 -72 -309 -152 -438 -297 -78
-89 -119 -171 -137 -274 -19 -103 -20 -448 -2 -484 16 -32 63 -49 257 -93 396
-92 817 -118 1216 -76 107 11 132 11 216 -4 116 -21 174 -21 257 -2 96 23 180
67 253 135 83 75 135 153 164 244 49 156 41 282 -28 426 -94 195 -299 330
-501 330 -21 0 -71 13 -110 30 -206 84 -238 98 -244 103 -3 4 18 53 46 109
108 216 138 489 71 658 -103 260 -392 417 -654 354z m203 -95 c35 -5 89 -22
119 -36 69 -33 187 -148 227 -223 28 -51 30 -64 33 -181 2 -70 -1 -159 -7
-199 -30 -194 -156 -387 -297 -456 -52 -25 -70 -29 -149 -29 -79 0 -97 4 -150
29 -73 36 -169 129 -213 208 -68 119 -102 262 -102 428 l0 108 45 90 c55 109
122 175 228 226 100 48 150 54 266 35z m336 -1139 c118 -40 126 -45 98 -68
-12 -9 -40 -28 -63 -42 -23 -14 -64 -47 -92 -74 -224 -220 -234 -553 -23 -796
l56 -65 -28 -7 c-42 -12 -643 -10 -747 3 -114 14 -405 70 -514 99 l-82 22 0
167 c0 91 5 195 10 231 35 221 244 420 554 526 90 31 103 30 171 -10 168 -102
345 -100 501 3 32 22 61 40 64 40 3 1 45 -13 95 -29z m420 -130 c148 -21 275
-120 350 -274 l37 -75 -4 -128 c-3 -117 -6 -134 -33 -188 -39 -81 -154 -196
-231 -233 -56 -25 -67 -27 -199 -27 -132 0 -143 2 -199 27 -77 37 -192 152
-232 233 -28 58 -29 66 -29 200 l0 140 40 75 c84 158 232 253 400 259 17 0 62
-4 100 -9z"/>
<path d="M2020 865 l0 -45 310 0 310 0 0 45 0 45 -310 0 -310 0 0 -45z"/>
</g>
</svg>
