<?xml version="1.0" standalone="no"?>
<!DOCTYPE svg PUBLIC "-//W3C//DTD SVG 20010904//EN"
 "http://www.w3.org/TR/2001/REC-SVG-20010904/DTD/svg10.dtd">
<svg version="1.0" encoding="utf-8" xmlns="http://www.w3.org/2000/svg"
 width="272.000000pt" height="240.000000pt" viewBox="0 0 272.000000 240.000000"
 preserveAspectRatio="xMidYMid meet">

<g transform="translate(0.000000,240.000000) scale(0.100000,-0.100000)"
fill="white" stroke="none">
<path d="M1153 2155 c-171 -46 -301 -181 -339 -352 -14 -65 -15 -90 -5 -175
13 -117 49 -230 98 -311 19 -32 34 -60 32 -61 -2 -2 -29 -11 -59 -21 -30 -10
-95 -38 -145 -63 -72 -37 -107 -63 -175 -131 -144 -145 -170 -219 -170 -493 0
-200 -13 -182 165 -227 339 -86 711 -111 1038 -70 72 9 99 8 157 -5 118 -27
208 -17 318 37 75 36 168 131 205 209 34 72 51 166 44 242 -21 226 -219 416
-434 416 -43 0 -72 8 -136 39 -45 22 -101 45 -124 52 -24 7 -43 16 -43 20 0 5
13 29 30 55 81 128 122 374 86 510 -63 237 -316 390 -543 329z m252 -99 c73
-33 150 -107 189 -181 30 -58 31 -64 30 -185 -1 -107 -4 -137 -27 -206 -34
-102 -91 -191 -157 -243 -246 -194 -550 55 -554 454 -1 92 1 105 30 165 17 36
47 83 67 106 38 43 130 98 193 114 62 15 168 4 229 -24z m-360 -892 c43 -32
118 -61 182 -70 67 -8 164 17 232 62 l54 36 84 -27 c46 -15 86 -31 88 -35 3
-5 -16 -19 -42 -32 -26 -13 -73 -48 -104 -78 -177 -173 -184 -452 -17 -635
l49 -54 -38 -8 c-61 -12 -489 -8 -596 6 -106 14 -343 61 -417 83 l-45 14 -3
129 c-2 72 2 160 8 196 30 175 205 337 445 415 87 29 80 29 120 -2z m936 -109
c24 -9 54 -23 67 -31 l24 -16 "/>
</g>
</svg>
